<svg width="76" height="24" viewBox="0 0 76 24" fill="none" xmlns="http://www.w3.org/2000/svg">
<path d="M17.2305 15.3275L17.2305 4.41359L8.61518 1.29512e-05L8.61518 10.9952L17.2305 15.3275Z" fill="#9BD6CD"/>
<path d="M-5.43594e-05 15.3275L-5.25639e-05 4.41359L8.61524 1.33514e-05L8.61524 10.9952L-5.43594e-05 15.3275Z" fill="#097275"/>
<path d="M17.2305 15.3275L8.55364 19.6598L-0.000108006 15.3275L8.61518 10.9991L17.2305 15.3275Z" fill="black"/>
<path d="M26.6314 18.3861L26.803 16.2043C27.5874 17.8468 29.1809 18.6803 31.0685 18.6803C34.5496 18.6803 36.7069 16.0817 36.7069 12.4535C36.7069 8.75181 34.6477 6.05518 31.2156 6.05518C29.2544 6.05518 27.6365 6.88868 26.852 8.45763V0.343231H24.5476V18.3861H26.6314ZM26.8765 12.3555C26.8765 9.904 28.2984 8.13894 30.6518 8.13894C33.0052 8.13894 34.4026 9.904 34.4026 12.3555C34.4026 14.8315 33.0052 16.5965 30.6518 16.5965C28.2984 16.5965 26.8765 14.856 26.8765 12.3555Z" fill="black"/>
<path d="M38.4624 12.38C38.4624 16.0817 41.11 18.6803 44.7137 18.6803C48.2929 18.6803 50.9405 16.0817 50.9405 12.38C50.9405 8.67826 48.2929 6.07969 44.7137 6.07969C41.11 6.07969 38.4624 8.67826 38.4624 12.38ZM40.7913 12.38C40.7913 9.87949 42.3848 8.13894 44.7137 8.13894C47.0181 8.13894 48.6361 9.87949 48.6361 12.38C48.6361 14.8805 47.0181 16.6211 44.7137 16.6211C42.3848 16.6211 40.7913 14.8805 40.7913 12.38Z" fill="black"/>
<path d="M54.2622 18.3861L57.204 13.998L60.1948 18.3861H62.8669L58.7729 12.4535L62.9405 6.39839H60.3174L57.3511 10.8601L54.3113 6.39839H51.6391L55.8067 12.4535L51.6146 18.3861H54.2622Z" fill="black"/>
<path d="M63.9502 23.7549C64.563 23.902 65.2004 24 65.9604 24C67.799 24 69.0002 23.142 69.8092 21.0828L75.4721 6.39839H73.0942L69.5395 16.0572L66.0584 6.39839H63.6315L68.4609 19.0235L68.0441 20.1757C67.4803 21.6956 66.5978 21.8672 65.4946 21.8672H63.9502V23.7549Z" fill="black"/>
</svg>
