<svg width="600" height="375" viewBox="0 0 600 375" fill="none" xmlns="http://www.w3.org/2000/svg">
<g clip-path="url(#clip0_8204_12252)">
<g clip-path="url(#clip1_8204_12252)">
<path d="M444.459 132.248C444.459 132.248 430.359 21.9146 347.167 101.239C240.521 202.922 168.836 0.825478 89.723 83.3192C46.5021 128.385 160.713 229.174 84.4362 282.215C8.15963 335.257 70.4913 374.966 70.4913 374.966H503.609C503.609 374.966 548.446 378.204 551.841 321.468C555.229 264.733 503.109 264.045 535.457 193.046C567.805 122.047 454.624 177.439 444.459 132.248Z" fill="#FDF8F2"/>
<mask id="mask0_8204_12252" style="mask-type:alpha" maskUnits="userSpaceOnUse" x="46" y="63" width="506" height="312">
<path d="M444.459 132.248C444.459 132.248 430.359 21.9146 347.167 101.239C240.521 202.922 168.836 0.825478 89.723 83.3192C46.5021 128.385 160.713 229.174 84.4362 282.215C8.15963 335.257 70.4913 374.966 70.4913 374.966H503.609C503.609 374.966 548.447 378.204 551.841 321.468C555.229 264.733 503.109 264.045 535.457 193.046C567.805 122.047 454.624 177.439 444.459 132.248Z" fill="#097275"/>
</mask>
<g mask="url(#mask0_8204_12252)">
<rect opacity="0.45" x="144" y="57" width="240" height="213" fill="url(#paint0_linear_8204_12252)"/>
<path opacity="0.45" d="M130.832 284.407H397.584L387.85 298.812C387.459 299.39 386.806 299.737 386.108 299.737H142.308C141.61 299.737 140.957 299.39 140.566 298.812L130.832 284.407Z" fill="url(#paint1_linear_8204_12252)"/>
<rect opacity="0.45" x="115.5" y="278.274" width="297.413" height="3.06611" fill="url(#paint2_linear_8204_12252)"/>
<rect x="150.762" y="75.9106" width="226.892" height="4.59917" fill="white"/>
<rect x="150.762" y="91.2415" width="226.892" height="4.59917" fill="white"/>
<rect x="150.762" y="106.572" width="226.892" height="4.59917" fill="white"/>
<rect x="150.762" y="121.903" width="226.892" height="4.59917" fill="white"/>
<rect x="150.762" y="137.233" width="226.892" height="4.59917" fill="white"/>
<rect x="150.762" y="152.564" width="226.892" height="4.59917" fill="white"/>
<rect x="150.762" y="167.894" width="226.892" height="4.59917" fill="white"/>
<rect x="150.762" y="183.225" width="226.892" height="4.59917" fill="white"/>
<rect x="150.762" y="198.556" width="226.892" height="4.59917" fill="white"/>
<rect x="150.762" y="83.5762" width="226.892" height="4.59917" fill="white"/>
<rect x="150.762" y="98.9067" width="226.892" height="4.59917" fill="white"/>
<rect x="150.762" y="114.237" width="226.892" height="4.59917" fill="white"/>
<rect x="150.762" y="129.568" width="226.892" height="4.59917" fill="white"/>
<rect x="150.762" y="144.898" width="226.892" height="4.59917" fill="white"/>
<rect x="150.762" y="160.229" width="226.892" height="4.59917" fill="white"/>
<rect x="150.762" y="175.56" width="226.892" height="4.59917" fill="white"/>
<rect x="150.762" y="190.89" width="226.892" height="4.59917" fill="white"/>
<rect x="150.762" y="206.221" width="226.892" height="4.59917" fill="white"/>
<rect x="159.957" y="75.9106" width="1.53306" height="154.839" fill="url(#paint3_linear_8204_12252)"/>
<path d="M157.965 230.268C157.965 229.687 158.436 229.216 159.016 229.216H162.432C163.013 229.216 163.484 229.687 163.484 230.268V234.234H157.965V230.268Z" fill="url(#paint4_linear_8204_12252)"/>
<path d="M156.354 234.97C156.492 234.532 156.898 234.234 157.357 234.234H164.092C164.552 234.234 164.958 234.532 165.096 234.97L167.194 241.647C167.407 242.325 166.901 243.014 166.191 243.014H155.259C154.549 243.014 154.043 242.325 154.256 241.647L156.354 234.97Z" fill="url(#paint5_linear_8204_12252)"/>
</g>
<path d="M497.105 374.292H548.111" stroke="#B5B5B5" stroke-width="3" stroke-miterlimit="10"/>
<path d="M69.9434 374.292H482.655" stroke="#B5B5B5" stroke-width="3" stroke-miterlimit="10"/>
<path d="M171.366 373.432H150.033C149.47 373.432 148.982 373.058 148.832 372.518L139.813 339.873C139.595 339.08 140.192 338.292 141.014 338.292H180.379C181.207 338.292 181.805 339.08 181.58 339.873L172.561 372.518C172.417 373.058 171.929 373.432 171.366 373.432Z" fill="#E1A325"/>
<path d="M166.744 338.292C166.744 338.292 166.227 324.284 177.378 310.275" stroke="#097275" stroke-width="1.7245" stroke-miterlimit="10"/>
<path d="M139.768 317.087C152.575 312.092 154.288 338.292 154.288 338.292" stroke="#097275" stroke-width="1.7245" stroke-miterlimit="10"/>
<path d="M160.232 338.292L158.1 319.386" stroke="#097275" stroke-width="1.7245" stroke-miterlimit="10"/>
<path d="M175.66 323.772C170.153 324.462 166.595 318.115 169.797 313.586C169.935 313.385 170.09 313.183 170.245 312.976C175.453 306.297 182.323 302.003 195.883 306.808C196.147 306.9 196.084 307.297 195.802 307.297C192.198 307.337 183.116 308.085 182.231 314.431C181.34 320.88 178.718 323.387 175.66 323.772Z" fill="#9BD6CD"/>
<path d="M157.858 289.5C157.858 289.5 157.771 305.078 160.881 308.59C163.985 312.108 162.784 321.3 158.105 320.886C153.42 320.466 146.66 305.256 157.858 289.5Z" fill="#9BD6CD"/>
<path d="M127.432 332.102C127.432 332.102 127.254 318.208 137.158 315.133C146.476 312.235 144.631 327.561 127.432 332.102Z" fill="#9BD6CD"/>
</g>
<path d="M232.42 373.085L381.566 372.677C382.658 372.671 383.618 371.936 383.894 370.878L413.688 257.239C414.09 255.704 412.929 254.21 411.348 254.216L262.202 254.624C261.11 254.629 260.15 255.365 259.874 256.423L230.08 370.062C229.678 371.591 230.839 373.091 232.42 373.085Z" fill="url(#paint6_linear_8204_12252)"/>
<path d="M441.245 373.085L292.203 372.677C291.088 372.671 290.11 371.918 289.829 370.838L260.064 257.297C259.656 255.733 260.834 254.204 262.455 254.21L411.498 254.618C412.613 254.624 413.59 255.377 413.872 256.457L443.637 369.993C444.045 371.562 442.861 373.091 441.245 373.085Z" fill="white"/>
<path d="M420.232 281.439L413.848 256.368C413.564 255.268 412.579 254.502 411.455 254.496L261.989 254.21C260.361 254.204 259.689 255.309 260.1 256.9L266.699 282.07L420.232 281.439Z" fill="#097275"/>
<path d="M293.57 272.011C294.819 271.67 295.398 269.804 294.862 267.844C294.326 265.884 292.879 264.572 291.629 264.914C290.38 265.255 289.802 267.121 290.337 269.081C290.873 271.041 292.32 272.353 293.57 272.011Z" fill="white"/>
<path d="M338.687 272.013C339.936 271.672 340.515 269.806 339.979 267.846C339.443 265.886 337.996 264.574 336.747 264.916C335.497 265.258 334.919 267.123 335.455 269.083C335.99 271.043 337.437 272.355 338.687 272.013Z" fill="white"/>
<path d="M383.812 272.014C385.061 271.673 385.64 269.807 385.104 267.847C384.568 265.887 383.121 264.575 381.872 264.917C380.622 265.258 380.044 267.124 380.58 269.084C381.115 271.044 382.563 272.356 383.812 272.014Z" fill="white"/>
<path d="M272.855 249.582C274.85 243.955 279.529 240 284.973 240C292.239 240 298.125 247.024 298.125 255.687C298.125 261.102 295.826 265.873 292.325 268.696" stroke="url(#paint7_linear_8204_12252)" stroke-width="3" stroke-miterlimit="10" stroke-linecap="round"/>
<path d="M317.824 249.582C319.819 243.955 324.498 240 329.942 240C337.208 240 343.094 247.024 343.094 255.687C343.094 261.102 340.795 265.873 337.294 268.696" stroke="url(#paint8_linear_8204_12252)" stroke-width="3" stroke-miterlimit="10" stroke-linecap="round"/>
<path d="M362.785 249.582C364.78 243.955 369.459 240 374.903 240C382.169 240 388.055 247.024 388.055 255.687C388.055 261.102 385.755 265.873 382.255 268.696" stroke="url(#paint9_linear_8204_12252)" stroke-width="3" stroke-miterlimit="10" stroke-linecap="round"/>
<path d="M309.9 342.319L308.929 338.615L309.901 342.316C309.902 342.316 309.902 342.317 309.902 342.317C309.913 342.363 309.925 342.408 309.936 342.453C309.924 342.409 309.912 342.365 309.9 342.321C309.9 342.32 309.9 342.32 309.9 342.319Z" stroke="url(#paint10_linear_8204_12252)" stroke-width="0.574833"/>
<path d="M335.91 342.319L334.939 338.615L335.911 342.316C335.911 342.316 335.911 342.317 335.912 342.317C335.923 342.363 335.934 342.408 335.946 342.453C335.934 342.409 335.922 342.365 335.91 342.321C335.91 342.32 335.91 342.32 335.91 342.319Z" stroke="url(#paint11_linear_8204_12252)" stroke-width="0.574833"/>
<path d="M361.919 342.319L360.945 338.601L361.921 342.316C361.921 342.316 361.921 342.317 361.921 342.317C361.933 342.363 361.944 342.409 361.956 342.454C361.944 342.41 361.932 342.365 361.92 342.321C361.92 342.32 361.919 342.32 361.919 342.319Z" stroke="url(#paint12_linear_8204_12252)" stroke-width="0.574833"/>
<path d="M387.927 342.319L386.96 338.63L387.929 342.316C387.929 342.316 387.929 342.317 387.929 342.317C387.941 342.362 387.952 342.407 387.963 342.452C387.951 342.408 387.939 342.365 387.928 342.321C387.927 342.32 387.927 342.32 387.927 342.319Z" stroke="url(#paint13_linear_8204_12252)" stroke-width="0.574833"/>
<path d="M413.939 342.319L412.972 338.63L413.941 342.316C413.941 342.316 413.941 342.317 413.941 342.317C413.952 342.362 413.964 342.407 413.975 342.452C413.963 342.408 413.951 342.365 413.939 342.321C413.939 342.32 413.939 342.32 413.939 342.319Z" stroke="url(#paint14_linear_8204_12252)" stroke-width="0.574833"/>
<mask id="path-50-inside-1_8204_12252" fill="white">
<path d="M283.49 301.03L350.016 300.829L366.646 300.771H383.276L399.905 300.875L408.223 300.926L416.535 301.03V301.087L408.223 301.185L399.905 301.243L383.276 301.346L366.646 301.34L350.016 301.289L283.49 301.087V301.03Z"/>
</mask>
<path d="M283.49 301.03L283.488 300.455L282.915 300.457V301.03H283.49ZM350.016 300.829L350.017 301.404L350.018 301.404L350.016 300.829ZM366.646 300.771V300.196L366.644 300.196L366.646 300.771ZM383.276 300.771L383.279 300.196H383.276V300.771ZM399.905 300.875L399.902 301.45L399.905 300.875ZM408.223 300.926L408.23 300.352L408.227 300.352L408.223 300.926ZM416.535 301.03H417.11V300.462L416.543 300.455L416.535 301.03ZM416.535 301.087L416.542 301.662L417.11 301.656V301.087H416.535ZM408.223 301.185L408.227 301.76L408.23 301.76L408.223 301.185ZM399.905 301.243L399.909 301.817L399.909 301.817L399.905 301.243ZM383.276 301.346L383.275 301.921L383.279 301.921L383.276 301.346ZM366.646 301.34L366.644 301.915L366.645 301.915L366.646 301.34ZM350.016 301.289L350.017 300.714L350.017 300.714L350.016 301.289ZM283.49 301.087H282.915V301.66L283.488 301.662L283.49 301.087ZM283.492 301.605L350.017 301.404L350.014 300.254L283.488 300.455L283.492 301.605ZM350.018 301.404L366.648 301.346L366.644 300.196L350.014 300.254L350.018 301.404ZM366.646 301.346H383.276V300.196H366.646V301.346ZM383.272 301.346L399.902 301.45L399.909 300.3L383.279 300.196L383.272 301.346ZM399.902 301.45L408.22 301.501L408.227 300.352L399.909 300.3L399.902 301.45ZM408.216 301.501L416.528 301.605L416.543 300.455L408.23 300.352L408.216 301.501ZM415.961 301.03V301.087H417.11V301.03H415.961ZM416.529 300.513L408.217 300.61L408.23 301.76L416.542 301.662L416.529 300.513ZM408.219 300.61L399.901 300.668L399.909 301.817L408.227 301.76L408.219 300.61ZM399.902 300.668L383.272 300.771L383.279 301.921L399.909 301.817L399.902 300.668ZM383.276 300.771L366.646 300.765L366.645 301.915L383.275 301.921L383.276 300.771ZM366.647 300.765L350.017 300.714L350.014 301.863L366.644 301.915L366.647 300.765ZM350.017 300.714L283.492 300.513L283.488 301.662L350.014 301.863L350.017 300.714ZM284.065 301.087V301.03H282.915V301.087H284.065Z" fill="url(#paint15_linear_8204_12252)" mask="url(#path-50-inside-1_8204_12252)"/>
<mask id="path-52-inside-2_8204_12252" fill="white">
<path d="M287.609 321.373L354.129 321.172L370.765 321.12L387.395 321.114L404.025 321.218L412.337 321.269L420.655 321.373V321.43L412.337 321.534L404.025 321.586L387.395 321.689H370.765L354.129 321.632L287.609 321.43V321.373Z"/>
</mask>
<path d="M287.609 321.373L287.608 320.798L287.035 320.8V321.373H287.609ZM354.129 321.172L354.131 321.747L354.131 321.747L354.129 321.172ZM370.765 321.12L370.765 320.545L370.763 320.545L370.765 321.12ZM387.395 321.114L387.398 320.539L387.394 320.539L387.395 321.114ZM404.025 321.218L404.028 320.643L404.025 321.218ZM412.337 321.269L412.344 320.695L412.34 320.695L412.337 321.269ZM420.655 321.373H421.229V320.805L420.662 320.798L420.655 321.373ZM420.655 321.43L420.662 322.005L421.229 321.998V321.43H420.655ZM412.337 321.534L412.34 322.109L412.344 322.109L412.337 321.534ZM404.025 321.586L404.028 322.16L404.025 321.586ZM387.395 321.689V322.264L387.398 322.264L387.395 321.689ZM370.765 321.689L370.763 322.264H370.765V321.689ZM354.129 321.632L354.131 321.057L354.131 321.057L354.129 321.632ZM287.609 321.43H287.035V322.004L287.608 322.005L287.609 321.43ZM287.611 321.948L354.131 321.747L354.127 320.597L287.608 320.798L287.611 321.948ZM354.131 321.747L370.767 321.695L370.763 320.545L354.127 320.597L354.131 321.747ZM370.765 321.695L387.395 321.689L387.394 320.539L370.765 320.545L370.765 321.695ZM387.391 321.689L404.021 321.793L404.028 320.643L387.398 320.539L387.391 321.689ZM404.021 321.793L412.333 321.844L412.34 320.695L404.028 320.643L404.021 321.793ZM412.33 321.844L420.647 321.948L420.662 320.798L412.344 320.695L412.33 321.844ZM420.08 321.373V321.43H421.229V321.373H420.08ZM420.647 320.856L412.33 320.959L412.344 322.109L420.662 322.005L420.647 320.856ZM412.333 320.959L404.021 321.011L404.028 322.16L412.34 322.109L412.333 320.959ZM404.021 321.011L387.391 321.114L387.398 322.264L404.028 322.16L404.021 321.011ZM387.395 321.114H370.765V322.264H387.395V321.114ZM370.767 321.114L354.131 321.057L354.127 322.206L370.763 322.264L370.767 321.114ZM354.131 321.057L287.611 320.856L287.608 322.005L354.127 322.206L354.131 321.057ZM288.184 321.43V321.373H287.035V321.43H288.184Z" fill="url(#paint16_linear_8204_12252)" mask="url(#path-52-inside-2_8204_12252)"/>
<mask id="path-54-inside-3_8204_12252" fill="white">
<path d="M292.607 341.722L359.127 341.521L375.763 341.463H392.393L409.023 341.567L417.335 341.619L425.653 341.722V341.78L417.335 341.883L409.023 341.935L392.393 342.038L375.763 342.032L359.127 341.981L292.607 341.78V341.722Z"/>
</mask>
<path d="M292.607 341.722L292.606 341.147L292.033 341.149V341.722H292.607ZM359.127 341.521L359.129 342.096L359.129 342.096L359.127 341.521ZM375.763 341.463V340.889L375.761 340.889L375.763 341.463ZM392.393 341.463L392.396 340.889H392.393V341.463ZM409.023 341.567L409.026 340.992V340.992L409.023 341.567ZM417.335 341.619L417.342 341.044L417.338 341.044L417.335 341.619ZM425.653 341.722H426.227V341.154L425.66 341.147L425.653 341.722ZM425.653 341.78L425.66 342.354L426.227 342.347V341.78H425.653ZM417.335 341.883L417.338 342.458L417.342 342.458L417.335 341.883ZM409.023 341.935L409.026 342.51L409.023 341.935ZM392.393 342.038L392.393 342.613L392.396 342.613L392.393 342.038ZM375.763 342.032L375.761 342.607L375.763 342.607L375.763 342.032ZM359.127 341.981L359.129 341.406L359.129 341.406L359.127 341.981ZM292.607 341.78H292.033V342.353L292.606 342.354L292.607 341.78ZM292.609 342.297L359.129 342.096L359.125 340.946L292.606 341.147L292.609 342.297ZM359.129 342.096L375.765 342.038L375.761 340.889L359.125 340.946L359.129 342.096ZM375.763 342.038H392.393V340.889H375.763V342.038ZM392.389 342.038L409.019 342.142L409.026 340.992L392.396 340.889L392.389 342.038ZM409.019 342.142L417.331 342.193L417.338 341.044L409.026 340.992L409.019 342.142ZM417.328 342.193L425.645 342.297L425.66 341.147L417.342 341.044L417.328 342.193ZM425.078 341.722V341.78H426.227V341.722H425.078ZM425.645 341.205L417.328 341.308L417.342 342.458L425.66 342.354L425.645 341.205ZM417.331 341.308L409.019 341.36L409.026 342.51L417.338 342.458L417.331 341.308ZM409.019 341.36L392.389 341.463L392.396 342.613L409.026 342.51L409.019 341.36ZM392.393 341.463L375.763 341.458L375.763 342.607L392.393 342.613L392.393 341.463ZM375.765 341.458L359.129 341.406L359.125 342.556L375.761 342.607L375.765 341.458ZM359.129 341.406L292.609 341.205L292.606 342.354L359.125 342.556L359.129 341.406ZM293.182 341.78V341.722H292.033V341.78H293.182Z" fill="url(#paint17_linear_8204_12252)" mask="url(#path-54-inside-3_8204_12252)"/>
</g>
<defs>
<linearGradient id="paint0_linear_8204_12252" x1="-78.75" y1="502.5" x2="120.62" y2="-7.67553" gradientUnits="userSpaceOnUse">
<stop stop-color="#A3A3A3"/>
<stop offset="0.9964" stop-color="white"/>
</linearGradient>
<linearGradient id="paint1_linear_8204_12252" x1="-69.9" y1="279.735" x2="48.7285" y2="544.155" gradientUnits="userSpaceOnUse">
<stop stop-color="#D8D8D8"/>
<stop offset="0.9964" stop-color="#F0F0F0"/>
</linearGradient>
<linearGradient id="paint2_linear_8204_12252" x1="154.559" y1="278.327" x2="156.276" y2="305.836" gradientUnits="userSpaceOnUse">
<stop stop-color="#C2C2C2"/>
<stop offset="1" stop-color="#CDCDCD"/>
</linearGradient>
<linearGradient id="paint3_linear_8204_12252" x1="158.803" y1="28.7217" x2="162.706" y2="28.7259" gradientUnits="userSpaceOnUse">
<stop stop-color="#D6D6D6"/>
<stop offset="0.9964" stop-color="#E7E7E7"/>
</linearGradient>
<linearGradient id="paint4_linear_8204_12252" x1="158.69" y1="229.303" x2="166.64" y2="230.748" gradientUnits="userSpaceOnUse">
<stop stop-color="#C2C2C2"/>
<stop offset="1" stop-color="#CDCDCD"/>
</linearGradient>
<linearGradient id="paint5_linear_8204_12252" x1="155.638" y1="234.386" x2="174.873" y2="239.379" gradientUnits="userSpaceOnUse">
<stop stop-color="#C2C2C2"/>
<stop offset="1" stop-color="#CDCDCD"/>
</linearGradient>
<linearGradient id="paint6_linear_8204_12252" x1="91.7137" y1="217.989" x2="546.544" y2="294.639" gradientUnits="userSpaceOnUse">
<stop stop-color="#D6D6D6"/>
<stop offset="0.9964" stop-color="#E7E7E7"/>
</linearGradient>
<linearGradient id="paint7_linear_8204_12252" x1="276.174" y1="240.496" x2="312.997" y2="245.853" gradientUnits="userSpaceOnUse">
<stop stop-color="#C2C2C2"/>
<stop offset="1" stop-color="#CDCDCD"/>
</linearGradient>
<linearGradient id="paint8_linear_8204_12252" x1="321.143" y1="240.496" x2="357.965" y2="245.853" gradientUnits="userSpaceOnUse">
<stop stop-color="#C2C2C2"/>
<stop offset="1" stop-color="#CDCDCD"/>
</linearGradient>
<linearGradient id="paint9_linear_8204_12252" x1="366.104" y1="240.496" x2="402.926" y2="245.853" gradientUnits="userSpaceOnUse">
<stop stop-color="#C2C2C2"/>
<stop offset="1" stop-color="#CDCDCD"/>
</linearGradient>
<linearGradient id="paint10_linear_8204_12252" x1="283.141" y1="270.871" x2="328.461" y2="272.17" gradientUnits="userSpaceOnUse">
<stop stop-color="#C2C2C2"/>
<stop offset="1" stop-color="#E7E7E7"/>
</linearGradient>
<linearGradient id="paint11_linear_8204_12252" x1="309.151" y1="270.871" x2="354.471" y2="272.17" gradientUnits="userSpaceOnUse">
<stop stop-color="#C2C2C2"/>
<stop offset="1" stop-color="#E7E7E7"/>
</linearGradient>
<linearGradient id="paint12_linear_8204_12252" x1="335.161" y1="270.871" x2="380.481" y2="272.17" gradientUnits="userSpaceOnUse">
<stop stop-color="#C2C2C2"/>
<stop offset="1" stop-color="#E7E7E7"/>
</linearGradient>
<linearGradient id="paint13_linear_8204_12252" x1="361.169" y1="270.871" x2="406.488" y2="272.17" gradientUnits="userSpaceOnUse">
<stop stop-color="#C2C2C2"/>
<stop offset="1" stop-color="#E7E7E7"/>
</linearGradient>
<linearGradient id="paint14_linear_8204_12252" x1="387.18" y1="270.871" x2="432.5" y2="272.17" gradientUnits="userSpaceOnUse">
<stop stop-color="#C2C2C2"/>
<stop offset="1" stop-color="#E7E7E7"/>
</linearGradient>
<linearGradient id="paint15_linear_8204_12252" x1="183.373" y1="300.596" x2="183.904" y2="313.997" gradientUnits="userSpaceOnUse">
<stop stop-color="#C2C2C2"/>
<stop offset="1" stop-color="#E7E7E7"/>
</linearGradient>
<linearGradient id="paint16_linear_8204_12252" x1="187.492" y1="320.939" x2="188.023" y2="334.34" gradientUnits="userSpaceOnUse">
<stop stop-color="#C2C2C2"/>
<stop offset="1" stop-color="#E7E7E7"/>
</linearGradient>
<linearGradient id="paint17_linear_8204_12252" x1="192.49" y1="341.288" x2="193.022" y2="354.689" gradientUnits="userSpaceOnUse">
<stop stop-color="#C2C2C2"/>
<stop offset="1" stop-color="#E7E7E7"/>
</linearGradient>
<clipPath id="clip0_8204_12252">
<rect width="600" height="375" fill="white"/>
</clipPath>
<clipPath id="clip1_8204_12252">
<rect width="505.965" height="312.156" fill="white" transform="translate(46.5 63)"/>
</clipPath>
</defs>
</svg>
