<svg width="184" height="212" viewBox="0 0 184 212" fill="none" xmlns="http://www.w3.org/2000/svg">
<g clip-path="url(#clip0_7354_6830)">
<path d="M15.752 96.2785L92.4678 63.5098L168.1 96.2785L91.9393 129.047L15.752 96.2785Z" fill="#9BD6CD"/>
<path d="M91.9397 63.5091L75.1325 56.189C74.7626 56.0304 74.3398 56.0304 73.9698 56.189L2.96205 86.7379C1.42932 87.3986 1.42932 90.0412 2.96205 90.7019L15.7789 96.2778L91.9397 63.5091Z" fill="#087477"/>
<path d="M91.9336 63.5091L108.741 56.189C109.111 56.0304 109.534 56.0304 109.904 56.189L180.911 86.7379C182.444 87.3986 182.444 90.0412 180.911 90.7019L168.094 96.2778L91.9336 63.5091Z" fill="#087477"/>
<path d="M91.8666 103.733C119.407 103.733 141.733 81.4072 141.733 53.8666C141.733 26.326 119.407 4 91.8666 4C64.326 4 42 26.326 42 53.8666C42 81.4072 64.326 103.733 91.8666 103.733Z" fill="#077477" stroke="white" stroke-width="7" stroke-miterlimit="10"/>
<path d="M75.4062 55.0029L89.0951 68.1368L108.307 41.8425" fill="#077477"/>
<path d="M75.4062 55.0029L89.0951 68.1368L108.307 41.8425" stroke="white" stroke-width="10" stroke-linecap="round" stroke-linejoin="round"/>
<path d="M15.752 96.2783V178.861L91.9393 212.264V129.1L15.752 96.2783Z" fill="#0B5657"/>
<path d="M168.094 96.2783V178.861L91.9336 212.264V129.1L168.094 96.2783Z" fill="#097F7F"/>
<path d="M91.9366 129.047L74.9973 150.796C74.0724 151.985 72.6453 152.408 71.3504 151.853L2.29827 122.15C-0.0536752 121.146 -0.767188 117.499 0.950528 115.305L15.7757 96.2783L91.9366 129.047Z" fill="#087477"/>
<path d="M91.9336 129.047L108.873 150.796C109.798 151.985 111.225 152.408 112.52 151.853L181.572 122.15C183.924 121.146 184.637 117.499 182.92 115.305L168.094 96.2783L91.9336 129.047Z" fill="#087477"/>
</g>
<defs>
<clipPath id="clip0_7354_6830">
<rect width="184" height="212" fill="white"/>
</clipPath>
</defs>
</svg>
