<svg width="540" height="338" viewBox="0 0 540 338" fill="none" xmlns="http://www.w3.org/2000/svg">
<g clip-path="url(#clip0_7971_16610)">
<g clip-path="url(#clip1_7971_16610)">
<path d="M401.362 119.023C401.362 119.023 388.672 19.723 313.8 91.1153C217.819 182.63 153.301 0.742886 82.0999 74.9872C43.2011 115.546 145.991 206.256 77.3418 253.994C8.69288 301.731 64.7914 337.469 64.7914 337.469H454.597C454.597 337.469 494.951 340.383 498.006 289.321C501.055 238.259 454.147 237.641 483.26 173.741C512.373 109.842 410.511 159.695 401.362 119.023Z" fill="#FDF8F2"/>
<mask id="mask0_7971_16610" style="mask-type:alpha" maskUnits="userSpaceOnUse" x="43" y="56" width="456" height="282">
<path d="M401.364 119.023C401.364 119.023 388.674 19.723 313.802 91.1153C217.82 182.63 153.303 0.742886 82.1019 74.9872C43.2031 115.546 145.993 206.256 77.3437 253.994C8.69484 301.731 64.7934 337.469 64.7934 337.469H454.599C454.599 337.469 494.953 340.383 498.008 289.321C501.057 238.259 454.149 237.641 483.262 173.741C512.375 109.842 410.513 159.695 401.364 119.023Z" fill="url(#paint0_linear_7971_16610)"/>
</mask>
<g mask="url(#mask0_7971_16610)">
<path opacity="0.6" d="M389.477 197.1C404.016 197.1 415.802 185.314 415.802 170.775C415.802 156.236 404.016 144.45 389.477 144.45C374.938 144.45 363.152 156.236 363.152 170.775C363.152 185.314 374.938 197.1 389.477 197.1Z" fill="url(#paint1_linear_7971_16610)"/>
<path d="M389.481 161.579C389.685 163.11 389.819 164.646 389.916 166.177C389.976 166.945 389.999 167.708 390.041 168.476C390.082 169.244 390.092 170.007 390.119 170.775L389.925 170.317C390.943 171.256 391.937 172.223 392.927 173.185C393.908 174.161 394.893 175.137 395.846 176.141C396.332 176.636 396.804 177.14 397.271 177.653C397.743 178.162 398.21 178.671 398.668 179.194C399.593 180.23 400.495 181.284 401.351 182.39C400.231 181.557 399.153 180.678 398.099 179.776C397.567 179.332 397.044 178.874 396.526 178.412C396.003 177.954 395.49 177.491 394.981 177.02C393.954 176.09 392.96 175.128 391.96 174.17C390.975 173.199 389.985 172.227 389.028 171.228L388.824 171.02L388.833 170.77C388.861 170.002 388.87 169.239 388.912 168.471C388.954 167.703 388.977 166.94 389.037 166.172C389.143 164.641 389.278 163.11 389.481 161.579Z" fill="#097275"/>
<rect x="117.451" y="206.55" width="175.038" height="117.836" fill="#097275"/>
<path d="M133.469 324.386H154.061L150.161 335.112C149.755 336.228 148.695 336.97 147.508 336.97H140.023C138.835 336.97 137.775 336.228 137.369 335.112L133.469 324.386Z" fill="#097275"/>
<path d="M254.736 324.386H275.329L271.429 335.112C271.023 336.228 269.963 336.97 268.775 336.97H261.29C260.103 336.97 259.042 336.228 258.637 335.112L254.736 324.386Z" fill="#097275"/>
<rect x="126.605" y="214.558" width="77.7947" height="101.82" fill="white" stroke="#097275" stroke-width="1.35"/>
<rect x="204.4" y="214.558" width="77.7947" height="101.82" fill="white" stroke="#097275" stroke-width="1.35"/>
<rect x="204.4" y="264.896" width="77.7947" height="51.4818" fill="white" stroke="#097275" stroke-width="1.35"/>
<circle cx="243.868" cy="224.282" r="2.8601" fill="#097275"/>
<circle cx="195.817" cy="265.468" r="2.8601" fill="#097275"/>
<circle cx="243.868" cy="273.476" r="2.8601" fill="#097275"/>
</g>
<path d="M64.2969 336.863H435.737" stroke="#B5B5B5" stroke-width="2.7" stroke-miterlimit="10"/>
<path d="M448.748 336.863H494.653" stroke="#B5B5B5" stroke-width="2.7" stroke-miterlimit="10"/>
<path d="M171.778 206.489H152.579C152.072 206.489 151.632 206.152 151.498 205.666L143.381 176.286C143.184 175.572 143.722 174.863 144.462 174.863H179.89C180.635 174.863 181.173 175.572 180.971 176.286L172.854 205.666C172.725 206.152 172.285 206.489 171.778 206.489Z" fill="#E1A325"/>
<path d="M167.619 174.863C167.619 174.863 167.153 162.255 177.19 149.647" stroke="#097275" stroke-width="1.55205" stroke-miterlimit="10"/>
<path d="M143.34 155.778C154.866 151.282 156.408 174.863 156.408 174.863" stroke="#097275" stroke-width="1.55205" stroke-miterlimit="10"/>
<path d="M161.757 174.863L159.838 157.847" stroke="#097275" stroke-width="1.55205" stroke-miterlimit="10"/>
<path d="M175.644 161.795C170.688 162.416 167.486 156.704 170.367 152.627C170.491 152.446 170.631 152.265 170.771 152.079C175.458 146.067 181.64 142.203 193.845 146.528C194.083 146.611 194.026 146.968 193.772 146.968C190.528 147.004 182.354 147.676 181.558 153.388C180.756 159.193 178.397 161.448 175.644 161.795Z" fill="#9BD6CD"/>
<path d="M159.621 130.95C159.621 130.95 159.543 144.97 162.342 148.131C165.136 151.297 164.054 159.57 159.843 159.197C155.627 158.82 149.543 145.131 159.621 130.95Z" fill="#9BD6CD"/>
<path d="M132.237 169.292C132.237 169.292 132.076 156.787 140.99 154.02C149.376 151.412 147.716 165.205 132.237 169.292Z" fill="#9BD6CD"/>
</g>
</g>
<defs>
<linearGradient id="paint0_linear_7971_16610" x1="43.2012" y1="56.7" x2="237.763" y2="446.753" gradientUnits="userSpaceOnUse">
<stop stop-color="#AACBFA"/>
<stop offset="1" stop-color="#C4DFFB"/>
</linearGradient>
<linearGradient id="paint1_linear_7971_16610" x1="323.533" y1="128.404" x2="461.021" y2="146.017" gradientUnits="userSpaceOnUse">
<stop stop-color="#E8E8E8"/>
<stop offset="0.9964" stop-color="#D7D7D7"/>
</linearGradient>
<clipPath id="clip0_7971_16610">
<rect width="540" height="337.5" fill="white"/>
</clipPath>
<clipPath id="clip1_7971_16610">
<rect width="455.368" height="280.941" fill="white" transform="translate(43.1992 56.7)"/>
</clipPath>
</defs>
</svg>
