<svg width="600" height="375" viewBox="0 0 600 375" fill="none" xmlns="http://www.w3.org/2000/svg">
<g clip-path="url(#clip0_7971_16464)">
<g clip-path="url(#clip1_7971_16464)">
<path d="M447.459 132.248C447.459 132.248 433.359 21.9146 350.167 101.239C243.521 202.922 171.836 0.825478 92.723 83.3192C49.5021 128.385 163.713 229.174 87.4362 282.215C11.1596 335.257 73.4913 374.966 73.4913 374.966H506.609C506.609 374.966 551.446 378.204 554.841 321.468C558.229 264.733 506.109 264.045 538.457 193.046C570.805 122.047 457.624 177.439 447.459 132.248Z" fill="#FDF8F2"/>
<g opacity="0.45">
<rect x="439.711" y="220.5" width="31.5" height="154.5" fill="url(#paint0_linear_7971_16464)"/>
<rect x="351.211" y="288" width="31.5" height="87" fill="url(#paint1_linear_7971_16464)"/>
<path d="M382.711 166.5L411.211 142.5L439.711 166.5V375H382.711V166.5Z" fill="url(#paint2_linear_7971_16464)"/>
<rect x="391.711" y="174" width="16.5" height="40.5" fill="white"/>
<rect x="391.711" y="220.5" width="16.5" height="40.5" fill="white"/>
<rect x="391.711" y="267" width="16.5" height="40.5" fill="white"/>
<rect x="414.211" y="174" width="16.5" height="40.5" fill="white"/>
<rect x="414.211" y="220.5" width="16.5" height="40.5" fill="white"/>
<rect x="414.211" y="267" width="16.5" height="40.5" fill="white"/>
<rect x="391.711" y="315" width="39" height="60" fill="white"/>
<rect x="186.211" y="166.5" width="42" height="208.5" fill="url(#paint3_linear_7971_16464)"/>
<rect x="193.711" y="154.5" width="27" height="12" fill="url(#paint4_linear_7971_16464)"/>
<path d="M198.211 142.5L207.211 135.75L216.211 142.5V154.5H198.211V142.5Z" fill="url(#paint5_linear_7971_16464)"/>
<path d="M228.211 240L270.211 264V375H228.211V240Z" fill="url(#paint6_linear_7971_16464)"/>
</g>
<path d="M72.9434 374.292H485.655" stroke="#B5B5B5" stroke-width="3" stroke-miterlimit="10"/>
<path d="M500.105 374.292H551.111" stroke="#B5B5B5" stroke-width="3" stroke-miterlimit="10"/>
</g>
<g filter="url(#filter0_d_7971_16464)">
<path d="M397.549 372.003L356.482 356.319L311.42 374.368L262.488 356.194L225.04 370.509C221.67 371.754 218.175 368.642 219.173 365.156L242.516 284.622C243.265 282.008 245.137 279.767 247.634 278.647L285.081 261.096L311.42 280.016L337.134 263.71L378.576 281.883C381.322 283.128 383.319 285.493 383.943 288.356L403.416 366.899C404.29 370.26 400.919 373.247 397.549 372.003Z" fill="white"/>
</g>
<path d="M285.081 261.22L262.488 356.194L225.04 370.509C221.67 371.753 218.175 368.642 219.173 365.156L242.516 284.621C243.265 282.007 245.137 279.767 247.634 278.647L285.081 261.22Z" fill="#097275"/>
<path d="M356.607 356.319L311.42 374.368V280.016L337.134 263.71L356.607 356.319Z" fill="#097275"/>
<mask id="path-21-inside-1_7971_16464" fill="white">
<path d="M271.099 334.661C270.974 334.661 270.85 334.661 270.6 334.661C270.101 334.536 269.726 334.536 269.227 334.412C267.854 334.038 267.105 332.793 267.354 331.424C267.604 330.055 268.977 329.308 270.35 329.557C270.725 329.682 271.099 329.682 271.474 329.806C272.847 330.055 273.721 331.3 273.471 332.669C273.346 333.914 272.348 334.661 271.099 334.661ZM279.837 334.412C278.714 334.412 277.715 333.665 277.465 332.544C277.091 331.175 277.965 329.806 279.338 329.557C279.712 329.433 280.087 329.308 280.461 329.308C281.834 328.935 283.207 329.682 283.582 330.926C283.956 332.296 283.207 333.665 281.959 334.038C281.46 334.163 281.085 334.287 280.586 334.412C280.212 334.412 279.962 334.412 279.837 334.412ZM261.987 330.926C261.488 330.926 260.988 330.802 260.614 330.553C260.239 330.304 259.865 330.055 259.49 329.806C258.367 329.059 258.117 327.441 258.866 326.321C259.615 325.2 261.238 324.952 262.361 325.698C262.736 325.947 262.986 326.196 263.36 326.321C264.484 327.068 264.858 328.561 264.109 329.806C263.61 330.553 262.861 330.926 261.987 330.926ZM288.825 330.304C288.076 330.304 287.202 329.931 286.702 329.184C285.954 328.063 286.203 326.445 287.451 325.698C287.826 325.449 288.076 325.325 288.45 325.076C289.573 324.329 291.196 324.578 291.945 325.698C292.694 326.819 292.444 328.437 291.321 329.184C290.947 329.433 290.572 329.682 290.198 329.931C289.823 330.055 289.324 330.304 288.825 330.304ZM351.737 327.317C350.488 327.317 349.365 326.321 349.24 324.952C349.115 323.582 350.239 322.338 351.612 322.338C351.861 322.338 352.236 322.338 352.61 322.213C353.983 321.964 355.232 322.835 355.481 324.205C355.731 325.574 354.857 326.819 353.484 327.068C352.985 327.192 352.486 327.192 351.986 327.317C351.861 327.317 351.861 327.317 351.737 327.317ZM254.373 324.454C253.749 324.454 253 324.205 252.625 323.707C252.375 323.458 252.001 323.084 251.751 322.711C250.753 321.715 250.878 320.097 251.876 319.226C252.875 318.354 254.497 318.354 255.371 319.35C255.621 319.599 255.871 319.973 256.245 320.222C257.244 321.217 257.119 322.835 256.12 323.707C255.621 324.205 254.997 324.454 254.373 324.454ZM343.748 324.454C343.248 324.454 342.624 324.329 342.25 323.956C341.875 323.707 341.501 323.458 341.251 323.084C340.253 322.213 340.128 320.595 341.002 319.599C341.875 318.603 343.498 318.479 344.497 319.35C344.746 319.599 345.121 319.848 345.37 320.097C346.494 320.968 346.619 322.462 345.745 323.582C345.246 324.08 344.497 324.454 343.748 324.454ZM296.689 324.08C295.94 324.08 295.315 323.831 294.816 323.209C293.942 322.213 294.067 320.595 295.066 319.724C295.44 319.475 295.69 319.226 295.94 318.977C296.938 318.105 298.561 318.23 299.435 319.226C300.308 320.222 300.184 321.84 299.185 322.711C298.811 322.96 298.561 323.209 298.186 323.582C297.812 323.956 297.313 324.08 296.689 324.08ZM360.974 323.707C360.1 323.707 359.351 323.333 358.852 322.587C358.103 321.466 358.477 319.848 359.601 319.101C359.975 318.852 360.225 318.728 360.599 318.479C361.723 317.732 363.345 317.981 364.094 319.101C364.843 320.222 364.594 321.84 363.47 322.587C363.096 322.835 362.721 323.084 362.347 323.333C361.847 323.582 361.348 323.707 360.974 323.707ZM336.508 317.608C335.884 317.608 335.26 317.359 334.76 316.861C334.511 316.612 334.136 316.363 333.887 315.989C332.888 315.118 332.763 313.5 333.762 312.504C334.635 311.508 336.258 311.384 337.257 312.38C337.631 312.629 337.881 313.002 338.255 313.251C339.254 314.247 339.254 315.74 338.38 316.736C337.756 317.359 337.132 317.608 336.508 317.608ZM368.838 317.608C368.089 317.608 367.465 317.359 366.965 316.736C366.092 315.74 366.216 314.122 367.215 313.251C367.465 313.002 367.839 312.753 368.089 312.504C369.087 311.633 370.71 311.757 371.584 312.753C372.458 313.749 372.333 315.367 371.334 316.238C370.96 316.487 370.71 316.736 370.336 317.11C370.086 317.483 369.462 317.608 368.838 317.608ZM303.928 317.359C303.304 317.359 302.68 317.11 302.181 316.612C301.182 315.616 301.182 314.122 302.181 313.126L303.055 312.255C304.053 311.259 305.551 311.259 306.55 312.131C307.548 313.126 307.548 314.62 306.675 315.616L305.801 316.487C305.301 317.11 304.677 317.359 303.928 317.359ZM248.007 316.861C247.258 316.861 246.509 316.487 246.009 315.865C245.76 315.491 245.51 315.243 245.26 314.869C244.387 313.749 244.636 312.255 245.76 311.384C246.883 310.513 248.381 310.761 249.255 311.882L250.004 312.878C250.878 313.998 250.628 315.491 249.504 316.363C249.005 316.612 248.506 316.861 248.007 316.861ZM328.894 311.259C328.394 311.259 327.895 311.135 327.396 310.761C327.021 310.513 326.771 310.264 326.397 310.015C325.274 309.268 325.024 307.65 325.898 306.529C326.647 305.409 328.269 305.16 329.393 306.031C329.767 306.28 330.017 306.529 330.391 306.778C331.515 307.65 331.765 309.143 330.891 310.264C330.391 310.886 329.642 311.259 328.894 311.259ZM376.327 311.01C375.703 311.01 374.954 310.761 374.455 310.264C373.456 309.268 373.581 307.65 374.58 306.778L375.453 305.907C376.452 304.911 378.075 305.036 378.949 306.031C379.947 307.027 379.822 308.645 378.824 309.517L377.95 310.388C377.576 310.761 376.951 311.01 376.327 311.01ZM310.794 310.015C310.17 310.015 309.546 309.766 309.046 309.392C308.048 308.396 307.923 306.903 308.921 305.907C309.171 305.534 309.546 305.285 309.795 304.911C310.794 303.915 312.292 303.915 313.29 304.911C314.289 305.907 314.289 307.401 313.29 308.396C313.041 308.645 312.791 309.019 312.417 309.268C312.042 309.766 311.418 310.015 310.794 310.015ZM242.265 308.645C241.391 308.645 240.642 308.272 240.143 307.525L239.394 306.529C238.645 305.409 239.019 303.791 240.143 303.044C241.266 302.297 242.889 302.671 243.638 303.791L244.262 304.787C245.011 305.907 244.761 307.525 243.513 308.272C243.263 308.521 242.764 308.645 242.265 308.645ZM320.405 306.031C320.156 306.031 319.781 306.031 319.532 305.907C319.157 305.782 318.907 305.782 318.658 305.658C317.285 305.409 316.411 304.04 316.785 302.671C317.16 301.301 318.408 300.43 319.781 300.804C320.281 300.928 320.78 301.052 321.279 301.301C322.527 301.799 323.276 303.169 322.777 304.538C322.278 305.409 321.404 306.031 320.405 306.031Z"/>
</mask>
<path d="M271.099 334.661C270.974 334.661 270.85 334.661 270.6 334.661C270.101 334.536 269.726 334.536 269.227 334.412C267.854 334.038 267.105 332.793 267.354 331.424C267.604 330.055 268.977 329.308 270.35 329.557C270.725 329.682 271.099 329.682 271.474 329.806C272.847 330.055 273.721 331.3 273.471 332.669C273.346 333.914 272.348 334.661 271.099 334.661ZM279.837 334.412C278.714 334.412 277.715 333.665 277.465 332.544C277.091 331.175 277.965 329.806 279.338 329.557C279.712 329.433 280.087 329.308 280.461 329.308C281.834 328.935 283.207 329.682 283.582 330.926C283.956 332.296 283.207 333.665 281.959 334.038C281.46 334.163 281.085 334.287 280.586 334.412C280.212 334.412 279.962 334.412 279.837 334.412ZM261.987 330.926C261.488 330.926 260.988 330.802 260.614 330.553C260.239 330.304 259.865 330.055 259.49 329.806C258.367 329.059 258.117 327.441 258.866 326.321C259.615 325.2 261.238 324.952 262.361 325.698C262.736 325.947 262.986 326.196 263.36 326.321C264.484 327.068 264.858 328.561 264.109 329.806C263.61 330.553 262.861 330.926 261.987 330.926ZM288.825 330.304C288.076 330.304 287.202 329.931 286.702 329.184C285.954 328.063 286.203 326.445 287.451 325.698C287.826 325.449 288.076 325.325 288.45 325.076C289.573 324.329 291.196 324.578 291.945 325.698C292.694 326.819 292.444 328.437 291.321 329.184C290.947 329.433 290.572 329.682 290.198 329.931C289.823 330.055 289.324 330.304 288.825 330.304ZM351.737 327.317C350.488 327.317 349.365 326.321 349.24 324.952C349.115 323.582 350.239 322.338 351.612 322.338C351.861 322.338 352.236 322.338 352.61 322.213C353.983 321.964 355.232 322.835 355.481 324.205C355.731 325.574 354.857 326.819 353.484 327.068C352.985 327.192 352.486 327.192 351.986 327.317C351.861 327.317 351.861 327.317 351.737 327.317ZM254.373 324.454C253.749 324.454 253 324.205 252.625 323.707C252.375 323.458 252.001 323.084 251.751 322.711C250.753 321.715 250.878 320.097 251.876 319.226C252.875 318.354 254.497 318.354 255.371 319.35C255.621 319.599 255.871 319.973 256.245 320.222C257.244 321.217 257.119 322.835 256.12 323.707C255.621 324.205 254.997 324.454 254.373 324.454ZM343.748 324.454C343.248 324.454 342.624 324.329 342.25 323.956C341.875 323.707 341.501 323.458 341.251 323.084C340.253 322.213 340.128 320.595 341.002 319.599C341.875 318.603 343.498 318.479 344.497 319.35C344.746 319.599 345.121 319.848 345.37 320.097C346.494 320.968 346.619 322.462 345.745 323.582C345.246 324.08 344.497 324.454 343.748 324.454ZM296.689 324.08C295.94 324.08 295.315 323.831 294.816 323.209C293.942 322.213 294.067 320.595 295.066 319.724C295.44 319.475 295.69 319.226 295.94 318.977C296.938 318.105 298.561 318.23 299.435 319.226C300.308 320.222 300.184 321.84 299.185 322.711C298.811 322.96 298.561 323.209 298.186 323.582C297.812 323.956 297.313 324.08 296.689 324.08ZM360.974 323.707C360.1 323.707 359.351 323.333 358.852 322.587C358.103 321.466 358.477 319.848 359.601 319.101C359.975 318.852 360.225 318.728 360.599 318.479C361.723 317.732 363.345 317.981 364.094 319.101C364.843 320.222 364.594 321.84 363.47 322.587C363.096 322.835 362.721 323.084 362.347 323.333C361.847 323.582 361.348 323.707 360.974 323.707ZM336.508 317.608C335.884 317.608 335.26 317.359 334.76 316.861C334.511 316.612 334.136 316.363 333.887 315.989C332.888 315.118 332.763 313.5 333.762 312.504C334.635 311.508 336.258 311.384 337.257 312.38C337.631 312.629 337.881 313.002 338.255 313.251C339.254 314.247 339.254 315.74 338.38 316.736C337.756 317.359 337.132 317.608 336.508 317.608ZM368.838 317.608C368.089 317.608 367.465 317.359 366.965 316.736C366.092 315.74 366.216 314.122 367.215 313.251C367.465 313.002 367.839 312.753 368.089 312.504C369.087 311.633 370.71 311.757 371.584 312.753C372.458 313.749 372.333 315.367 371.334 316.238C370.96 316.487 370.71 316.736 370.336 317.11C370.086 317.483 369.462 317.608 368.838 317.608ZM303.928 317.359C303.304 317.359 302.68 317.11 302.181 316.612C301.182 315.616 301.182 314.122 302.181 313.126L303.055 312.255C304.053 311.259 305.551 311.259 306.55 312.131C307.548 313.126 307.548 314.62 306.675 315.616L305.801 316.487C305.301 317.11 304.677 317.359 303.928 317.359ZM248.007 316.861C247.258 316.861 246.509 316.487 246.009 315.865C245.76 315.491 245.51 315.243 245.26 314.869C244.387 313.749 244.636 312.255 245.76 311.384C246.883 310.513 248.381 310.761 249.255 311.882L250.004 312.878C250.878 313.998 250.628 315.491 249.504 316.363C249.005 316.612 248.506 316.861 248.007 316.861ZM328.894 311.259C328.394 311.259 327.895 311.135 327.396 310.761C327.021 310.513 326.771 310.264 326.397 310.015C325.274 309.268 325.024 307.65 325.898 306.529C326.647 305.409 328.269 305.16 329.393 306.031C329.767 306.28 330.017 306.529 330.391 306.778C331.515 307.65 331.765 309.143 330.891 310.264C330.391 310.886 329.642 311.259 328.894 311.259ZM376.327 311.01C375.703 311.01 374.954 310.761 374.455 310.264C373.456 309.268 373.581 307.65 374.58 306.778L375.453 305.907C376.452 304.911 378.075 305.036 378.949 306.031C379.947 307.027 379.822 308.645 378.824 309.517L377.95 310.388C377.576 310.761 376.951 311.01 376.327 311.01ZM310.794 310.015C310.17 310.015 309.546 309.766 309.046 309.392C308.048 308.396 307.923 306.903 308.921 305.907C309.171 305.534 309.546 305.285 309.795 304.911C310.794 303.915 312.292 303.915 313.29 304.911C314.289 305.907 314.289 307.401 313.29 308.396C313.041 308.645 312.791 309.019 312.417 309.268C312.042 309.766 311.418 310.015 310.794 310.015ZM242.265 308.645C241.391 308.645 240.642 308.272 240.143 307.525L239.394 306.529C238.645 305.409 239.019 303.791 240.143 303.044C241.266 302.297 242.889 302.671 243.638 303.791L244.262 304.787C245.011 305.907 244.761 307.525 243.513 308.272C243.263 308.521 242.764 308.645 242.265 308.645ZM320.405 306.031C320.156 306.031 319.781 306.031 319.532 305.907C319.157 305.782 318.907 305.782 318.658 305.658C317.285 305.409 316.411 304.04 316.785 302.671C317.16 301.301 318.408 300.43 319.781 300.804C320.281 300.928 320.78 301.052 321.279 301.301C322.527 301.799 323.276 303.169 322.777 304.538C322.278 305.409 321.404 306.031 320.405 306.031Z" stroke="#BCBCBC" stroke-width="3" mask="url(#path-21-inside-1_7971_16464)"/>
<path d="M311.42 195C334.264 195 352.738 213.422 352.738 236.201C352.738 254.374 326.524 290.347 315.789 304.288C313.542 307.276 309.049 307.276 306.802 304.288C296.067 290.347 269.854 254.374 269.854 236.201C270.103 213.422 288.577 195 311.42 195Z" fill="#E1A325"/>
<path d="M311.419 252.382C320.45 252.382 327.771 245.082 327.771 236.076C327.771 227.071 320.45 219.77 311.419 219.77C302.388 219.77 295.066 227.071 295.066 236.076C295.066 245.082 302.388 252.382 311.419 252.382Z" fill="white"/>
<path d="M137.743 249.353C137.743 249.353 131.88 247.15 128.951 258.134C126.023 269.118 117.23 266.951 115.031 279.421C112.831 291.892 115.731 304.362 113.566 310.226C111.402 316.09 104.774 325.657 109.902 337.37C115.031 349.083 126.751 356.44 142.872 352.036C158.992 347.631 174.398 349.104 176.57 323.433C178.742 297.762 157.521 303.626 158.257 292.628C158.992 281.631 169.977 277.955 161.921 267.687C153.864 257.419 148 260.351 144.336 253.751C140.672 247.15 137.743 249.353 137.743 249.353Z" fill="#9BD6CD"/>
<path d="M140.48 374.241L140.034 257.804H139.642L136.287 374.464L140.48 374.241Z" fill="#097275"/>
<path d="M137.099 344.804L111.324 325.642L138.661 342.069L137.099 344.804Z" fill="#097275"/>
<path d="M139.069 307.932L119.922 293.701L140.232 305.898L139.069 307.932Z" fill="#097275"/>
<path d="M140.229 331.12L166.004 311.958L138.66 328.377L140.229 331.12Z" fill="#097275"/>
<path d="M140.468 286.779L157.408 274.189L139.445 284.976L140.468 286.779Z" fill="#097275"/>
</g>
<defs>
<filter id="filter0_d_7971_16464" x="177" y="231.096" width="256.557" height="185.272" filterUnits="userSpaceOnUse" color-interpolation-filters="sRGB">
<feFlood flood-opacity="0" result="BackgroundImageFix"/>
<feColorMatrix in="SourceAlpha" type="matrix" values="0 0 0 0 0 0 0 0 0 0 0 0 0 0 0 0 0 0 127 0" result="hardAlpha"/>
<feOffset dx="-6" dy="6"/>
<feGaussianBlur stdDeviation="18"/>
<feComposite in2="hardAlpha" operator="out"/>
<feColorMatrix type="matrix" values="0 0 0 0 0.67451 0 0 0 0 0.721569 0 0 0 0 0.792157 0 0 0 0.5 0"/>
<feBlend mode="normal" in2="BackgroundImageFix" result="effect1_dropShadow_7971_16464"/>
<feBlend mode="normal" in="SourceGraphic" in2="effect1_dropShadow_7971_16464" result="shape"/>
</filter>
<linearGradient id="paint0_linear_7971_16464" x1="416.007" y1="173.414" x2="499.558" y2="175.596" gradientUnits="userSpaceOnUse">
<stop stop-color="#CBCBCB"/>
<stop offset="0.9964" stop-color="#F1F1F1"/>
</linearGradient>
<linearGradient id="paint1_linear_7971_16464" x1="327.507" y1="261.486" x2="410.935" y2="265.355" gradientUnits="userSpaceOnUse">
<stop stop-color="#CBCBCB"/>
<stop offset="0.9964" stop-color="#F1F1F1"/>
</linearGradient>
<linearGradient id="paint2_linear_7971_16464" x1="339.818" y1="71.6429" x2="490.959" y2="76.3896" gradientUnits="userSpaceOnUse">
<stop stop-color="#CBCBCB"/>
<stop offset="0.9964" stop-color="#F1F1F1"/>
</linearGradient>
<linearGradient id="paint3_linear_7971_16464" x1="154.606" y1="102.957" x2="266.009" y2="105.832" gradientUnits="userSpaceOnUse">
<stop stop-color="#CBCBCB"/>
<stop offset="0.9964" stop-color="#F1F1F1"/>
</linearGradient>
<linearGradient id="paint4_linear_7971_16464" x1="173.393" y1="150.843" x2="239.56" y2="169.914" gradientUnits="userSpaceOnUse">
<stop stop-color="#CBCBCB"/>
<stop offset="0.9964" stop-color="#F1F1F1"/>
</linearGradient>
<linearGradient id="paint5_linear_7971_16464" x1="184.666" y1="130.036" x2="231.73" y2="135.824" gradientUnits="userSpaceOnUse">
<stop stop-color="#CBCBCB"/>
<stop offset="0.9964" stop-color="#F1F1F1"/>
</linearGradient>
<linearGradient id="paint6_linear_7971_16464" x1="196.606" y1="198.857" x2="307.906" y2="203.293" gradientUnits="userSpaceOnUse">
<stop stop-color="#CBCBCB"/>
<stop offset="0.9964" stop-color="#F1F1F1"/>
</linearGradient>
<clipPath id="clip0_7971_16464">
<rect width="600" height="375" fill="white"/>
</clipPath>
<clipPath id="clip1_7971_16464">
<rect width="505.965" height="312.156" fill="white" transform="translate(49.5 63)"/>
</clipPath>
</defs>
</svg>
