<svg width="540" height="338" viewBox="0 0 540 338" fill="none" xmlns="http://www.w3.org/2000/svg">
<g clip-path="url(#clip0_7971_16685)">
<path d="M401.362 116.323C401.362 116.323 388.672 17.0231 313.8 88.4153C217.819 179.93 153.301 -1.95707 82.0999 72.2872C43.2011 112.847 145.991 203.556 77.3418 251.294C8.69288 299.031 64.7914 334.769 64.7914 334.769H454.597C454.597 334.769 494.951 337.683 498.006 286.621C501.055 235.559 454.147 234.941 483.26 171.042C512.373 107.142 410.511 156.995 401.362 116.323Z" fill="#FDF8F2"/>
<rect x="375.299" y="147.15" width="63.45" height="132.3" fill="white"/>
<rect x="311.85" y="147.15" width="63.45" height="132.3" fill="white"/>
<rect x="314.549" y="149.85" width="59.4" height="126.9" fill="url(#paint0_linear_7971_16685)"/>
<rect x="376.65" y="149.85" width="59.4" height="126.9" fill="url(#paint1_linear_7971_16685)"/>
<path d="M64.2988 334.163H435.739" stroke="#B5B5B5" stroke-width="2.7" stroke-miterlimit="10"/>
<path d="M448.744 334.163H494.649" stroke="#B5B5B5" stroke-width="2.7" stroke-miterlimit="10"/>
<rect x="102" y="231" width="136.35" height="91.7912" fill="#097275"/>
<path d="M114.477 322.791H130.518L127.629 330.735C127.223 331.851 126.163 332.594 124.975 332.594H120.019C118.832 332.594 117.771 331.851 117.365 330.735L114.477 322.791Z" fill="#097275"/>
<path d="M208.939 322.791H224.981L222.092 330.735C221.686 331.851 220.626 332.594 219.438 332.594H214.482C213.295 332.594 212.234 331.851 211.828 330.735L208.939 322.791Z" fill="#097275"/>
<rect x="109.129" y="237.238" width="60.6" height="79.3147" fill="white" stroke="#097275" stroke-width="1.35"/>
<rect x="169.729" y="237.238" width="60.6" height="79.3147" fill="white" stroke="#097275" stroke-width="1.35"/>
<rect x="169.729" y="276.45" width="60.6" height="40.1029" fill="white" stroke="#097275" stroke-width="1.35"/>
<circle cx="200.476" cy="244.813" r="2.22794" fill="#097275"/>
<circle cx="163.044" cy="276.896" r="2.22794" fill="#097275"/>
<circle cx="200.476" cy="283.134" r="2.22794" fill="#097275"/>
</g>
<path d="M382.382 333.389H363.183C362.676 333.389 362.236 333.052 362.101 332.566L353.984 303.186C353.788 302.472 354.326 301.763 355.065 301.763H390.494C391.239 301.763 391.777 302.472 391.575 303.186L383.458 332.566C383.328 333.052 382.889 333.389 382.382 333.389Z" fill="#E1A325"/>
<path d="M378.22 301.763C378.22 301.763 377.755 289.155 387.791 276.547" stroke="#097275" stroke-width="1.55205" stroke-miterlimit="10"/>
<path d="M353.943 282.678C365.47 278.182 367.012 301.763 367.012 301.763" stroke="#097275" stroke-width="1.55205" stroke-miterlimit="10"/>
<path d="M372.359 301.763L370.439 284.747" stroke="#097275" stroke-width="1.55205" stroke-miterlimit="10"/>
<path d="M386.246 288.695C381.29 289.316 378.087 283.604 380.969 279.527C381.093 279.346 381.233 279.165 381.372 278.979C386.06 272.967 392.242 269.103 404.446 273.428C404.684 273.511 404.627 273.867 404.374 273.867C401.13 273.904 392.956 274.576 392.159 280.288C391.357 286.092 388.998 288.348 386.246 288.695Z" fill="#9BD6CD"/>
<path d="M370.222 257.85C370.222 257.85 370.145 271.87 372.943 275.031C375.737 278.197 374.656 286.47 370.445 286.097C366.228 285.719 360.144 272.03 370.222 257.85Z" fill="#9BD6CD"/>
<path d="M342.84 296.192C342.84 296.192 342.68 283.687 351.594 280.919C359.98 278.312 358.319 292.105 342.84 296.192Z" fill="#9BD6CD"/>
<defs>
<linearGradient id="paint0_linear_7971_16685" x1="269.85" y1="111.176" x2="426.946" y2="120.596" gradientUnits="userSpaceOnUse">
<stop stop-color="#E9E9E9"/>
<stop offset="0.9964" stop-color="#F2F2F2"/>
</linearGradient>
<linearGradient id="paint1_linear_7971_16685" x1="331.952" y1="111.176" x2="489.047" y2="120.596" gradientUnits="userSpaceOnUse">
<stop stop-color="#E9E9E9"/>
<stop offset="0.9964" stop-color="#F2F2F2"/>
</linearGradient>
<clipPath id="clip0_7971_16685">
<rect width="455.368" height="280.941" fill="white" transform="translate(43.1992 54)"/>
</clipPath>
</defs>
</svg>
